<svg viewBox="0 0 48 48" xml:space="preserve" xmlns="http://www.w3.org/2000/svg"><path d="M36 16H12c-2.206 0-4-1.794-4-4V6c0-2.206 1.794-4 4-4h24c2.206 0 4 1.794 4 4v6c0 2.206-1.794 4-4 4zM12 4c-1.103 0-2 .897-2 2v6c0 1.103.897 2 2 2h24c1.103 0 2-.897 2-2V6c0-1.103-.897-2-2-2H12z" fill="#f45905" class="fill-000000"></path><path d="M39 8h3v2h-3zM26 30h-2v-9c0-.551-.449-1-1-1H8c-2.542 0-4-1.458-4-4v-4c0-2.542 1.458-4 4-4h1v2H8c-1.439 0-2 .561-2 2v4c0 1.439.561 2 2 2h15c1.654 0 3 1.346 3 3v9z" fill="#f45905" class="fill-000000"></path><path d="M26 48h-2c-1.654 0-3-1.346-3-3V34c0-3.131 1.495-5 4-5s4 1.869 4 5v11c0 1.654-1.346 3-3 3zm-1-17c-.495 0-2 0-2 3v11c0 .551.449 1 1 1h2c.551 0 1-.449 1-1V34c0-3-1.505-3-2-3z" fill="#f45905" class="fill-000000"></path></svg>