<svg viewBox="0 0 32 32" xml:space="preserve" xmlns="http://www.w3.org/2000/svg"><g fill="none" stroke="#FFFFFF" stroke-linecap="round" stroke-linejoin="round" stroke-miterlimit="10" stroke-width="2" class="stroke-ffffff"></g><path d="M27.922 10.615a1.001 1.001 0 0 0-.216-.323l-7.998-7.998A1.001 1.001 0 0 0 19 2H5a1 1 0 0 0 0 2h13v7a1 1 0 0 0 1 1h7v16H6V7a1 1 0 0 0-2 0v22a1 1 0 0 0 1 1h22a1 1 0 0 0 1-1V11a.992.992 0 0 0-.078-.385zM20 5.414 24.586 10H20V5.414z" fill="#3d5367" class="fill-000000"></path></svg>