<svg viewBox="0 0 32 32" xmlns="http://www.w3.org/2000/svg"><path d="M29.92 2.62a1 1 0 0 0-.54-.54A1 1 0 0 0 29 2H9a1 1 0 0 0-1 1v5H3a1 1 0 0 0-1 1v20a1 1 0 0 0 1 1h20a1 1 0 0 0 1-1v-5h5a1 1 0 0 0 1-1V3a1 1 0 0 0-.08-.38ZM28 17.59 23.59 22h-2.18L28 15.41Zm0-5L18.59 22h-2.18L28 10.41Zm0-5L13.59 22h-2.18L28 5.41ZM16.59 4 10 10.59V8.41L14.41 4Zm5 0L10 15.59v-2.18L19.41 4ZM10 18.41 24.41 4h2.18L10 20.59ZM11.59 4 10 5.59V4ZM22 28H4V10h4v13a1 1 0 0 0 .08.38 1 1 0 0 0 .54.54A1 1 0 0 0 9 24h13Zm4.41-6L28 20.41V22Z" data-name="background, foreground, css, effect, shadow, gradient, tool" fill="#f45905" class="fill-000000"></path></svg>