<?xml version="1.0" encoding="utf-8"?>
<!-- Generator: Adobe Illustrator 26.0.0, SVG Export Plug-In . SVG Version: 6.00 Build 0)  -->
<svg version="1.1" id="Layer_1" xmlns="http://www.w3.org/2000/svg" xmlns:xlink="http://www.w3.org/1999/xlink" x="0px" y="0px"
	 viewBox="0 0 432 72" style="enable-background:new 0 0 432 72;" xml:space="preserve">
<style type="text/css">
	.st0{fill:#FCFCFC;}
</style>
<g>
	<path class="st0" d="M97.06,20.87c-2.3,0-4.41,0.38-6.35,1.14c-1.94,0.76-3.6,1.86-4.99,3.31c-1.39,1.45-2.47,3.23-3.25,5.35
		s-1.17,4.55-1.17,7.28c0,2.71,0.36,5.09,1.07,7.15c0.71,2.05,1.73,3.77,3.06,5.15c1.33,1.38,2.96,2.42,4.87,3.12
		c1.92,0.7,4.09,1.05,6.53,1.05c1.74,0,3.52-0.14,5.34-0.41c1.81-0.28,3.51-0.68,5.1-1.21v7.27c-1.61,0.46-3.34,0.82-5.2,1.08
		c-1.86,0.26-3.79,0.4-5.79,0.4c-3.9,0-7.33-0.56-10.3-1.67s-5.44-2.69-7.42-4.72c-1.99-2.03-3.48-4.46-4.48-7.3
		c-1-2.84-1.5-5.96-1.5-9.38c0-3.51,0.53-6.77,1.6-9.78c1.07-3.01,2.61-5.61,4.61-7.82c2.01-2.2,4.52-3.94,7.54-5.2
		c3.02-1.26,6.43-1.91,10.24-1.93c1.95,0,3.8,0.13,5.54,0.4c1.74,0.26,3.32,0.64,4.72,1.12v7.16c-1.84-0.57-3.55-0.98-5.13-1.21
		C100.13,20.99,98.58,20.87,97.06,20.87z"/>
	<path class="st0" d="M146.65,44.01c0,2.62-0.39,5-1.17,7.16c-0.78,2.16-1.9,4.01-3.36,5.54c-1.46,1.54-3.22,2.73-5.29,3.56
		c-2.07,0.84-4.37,1.26-6.92,1.26c-2.62,0-4.96-0.42-7.04-1.26c-2.08-0.84-3.84-2.03-5.29-3.56s-2.55-3.39-3.32-5.54
		c-0.77-2.16-1.15-4.54-1.15-7.16s0.39-5,1.17-7.16c0.78-2.16,1.9-4.01,3.36-5.54c1.46-1.54,3.22-2.73,5.29-3.56
		c2.07-0.84,4.37-1.26,6.92-1.26c2.62,0,4.96,0.42,7.04,1.26c2.08,0.84,3.84,2.03,5.29,3.56s2.55,3.39,3.32,5.54
		C146.27,39.01,146.65,41.4,146.65,44.01z M138.22,44.01c0-1.77-0.21-3.33-0.62-4.68s-0.99-2.49-1.72-3.41
		c-0.74-0.92-1.62-1.61-2.65-2.07c-1.03-0.46-2.16-0.69-3.37-0.69c-1.19,0-2.3,0.23-3.32,0.69c-1.02,0.46-1.9,1.15-2.63,2.07
		c-0.74,0.92-1.31,2.06-1.72,3.41c-0.41,1.35-0.62,2.92-0.62,4.68s0.21,3.33,0.62,4.68c0.41,1.35,0.99,2.49,1.74,3.39
		c0.75,0.91,1.63,1.6,2.65,2.07s2.14,0.71,3.36,0.71c1.22,0,2.33-0.24,3.34-0.71c1.01-0.47,1.88-1.16,2.62-2.07
		c0.73-0.91,1.31-2.04,1.72-3.39S138.22,45.78,138.22,44.01z"/>
	<path class="st0" d="M161.39,31.96h0.14c0.48-0.69,1.09-1.37,1.83-2.03c0.73-0.67,1.57-1.25,2.51-1.76s1.98-0.91,3.12-1.22
		s2.35-0.46,3.63-0.46c1.22,0,2.39,0.14,3.53,0.41c1.14,0.28,2.17,0.71,3.12,1.29c0.94,0.59,1.77,1.34,2.5,2.27
		c0.72,0.93,1.29,2.04,1.7,3.32c0.23,0.71,0.38,1.49,0.46,2.32c0.08,0.84,0.12,1.81,0.12,2.91v21.66h-8.16V40.29
		c0-0.89-0.03-1.66-0.1-2.31s-0.2-1.21-0.38-1.69c-0.41-1.06-1.04-1.81-1.88-2.27c-0.84-0.46-1.85-0.69-3.05-0.69
		c-1.58,0-3.11,0.37-4.56,1.12c-1.46,0.75-2.75,1.83-3.87,3.25v22.97h-8.16V27.31h6.75L161.39,31.96z"/>
	<path class="st0" d="M207.78,51c0-0.71-0.2-1.3-0.6-1.76c-0.4-0.46-0.94-0.84-1.6-1.15c-0.67-0.31-1.43-0.58-2.29-0.81
		s-1.76-0.46-2.7-0.69c-1.19-0.32-2.34-0.69-3.44-1.12c-1.1-0.42-2.07-0.98-2.91-1.67c-0.84-0.69-1.5-1.55-2-2.6
		c-0.49-1.04-0.74-2.32-0.74-3.84c0-1.86,0.33-3.47,1-4.84c0.67-1.37,1.57-2.5,2.7-3.39c1.14-0.9,2.46-1.56,3.96-2
		c1.5-0.44,3.09-0.65,4.77-0.65c2.04,0,3.96,0.17,5.75,0.5c1.79,0.33,3.41,0.76,4.86,1.29v6.65c-0.76-0.25-1.56-0.49-2.39-0.71
		c-0.84-0.22-1.69-0.41-2.55-0.57c-0.86-0.16-1.72-0.29-2.57-0.4c-0.85-0.1-1.65-0.15-2.41-0.15c-0.96,0-1.78,0.09-2.45,0.28
		c-0.67,0.18-1.21,0.43-1.62,0.74c-0.41,0.31-0.71,0.67-0.9,1.07c-0.18,0.4-0.28,0.82-0.28,1.26c0,0.76,0.2,1.38,0.6,1.86
		c0.4,0.48,0.96,0.87,1.67,1.17c0.71,0.3,1.46,0.55,2.24,0.74c0.78,0.2,1.54,0.38,2.27,0.57c1.15,0.28,2.3,0.61,3.44,1
		c1.15,0.39,2.18,0.94,3.1,1.64c0.92,0.7,1.67,1.61,2.26,2.72c0.58,1.11,0.88,2.53,0.88,4.25c0,1.88-0.36,3.52-1.07,4.92
		c-0.71,1.4-1.7,2.57-2.98,3.5c-1.27,0.93-2.8,1.62-4.58,2.07c-1.78,0.45-3.74,0.67-5.87,0.67c-2.11,0-4.01-0.17-5.7-0.5
		c-1.69-0.33-3.08-0.75-4.18-1.26v-6.58c1.79,0.67,3.44,1.12,4.96,1.36c1.52,0.24,2.93,0.36,4.24,0.36c1.01,0,1.95-0.07,2.82-0.22
		c0.87-0.15,1.62-0.38,2.26-0.71c0.63-0.32,1.13-0.73,1.5-1.22C207.59,52.28,207.78,51.69,207.78,51z"/>
	<path class="st0" d="M243.28,60.65c-0.92,0.28-2.01,0.49-3.29,0.65c-1.27,0.16-2.46,0.24-3.56,0.24c-2.8,0-5.09-0.45-6.87-1.36
		c-1.78-0.91-3.04-2.21-3.77-3.91c-0.53-1.22-0.79-2.87-0.79-4.96V34.03h-6.23v-6.71H225v-9.33h8.16v9.33h9.64v6.71h-9.64v16.22
		c0,1.29,0.19,2.24,0.58,2.86c0.69,1.06,2.05,1.58,4.1,1.58c0.94,0,1.88-0.07,2.81-0.22s1.81-0.34,2.63-0.57V60.65z"/>
	<path class="st0" d="M269.49,33.78h-0.69c-2.5,0-4.7,0.37-6.59,1.12c-1.89,0.75-3.36,1.89-4.39,3.43v22.35h-8.16V27.31h6.75
		l0.76,4.65h0.14c0.96-1.7,2.29-3.04,3.98-4.01c1.69-0.98,3.71-1.46,6.08-1.46c0.83,0,1.54,0.05,2.14,0.14V33.78z"/>
	<path class="st0" d="M289.05,61.54c-3.35,0-6.13-0.57-8.33-1.71s-3.87-2.67-4.99-4.6c-0.6-1.03-1.04-2.17-1.33-3.41
		c-0.29-1.24-0.43-2.62-0.43-4.13V27.31h8.16v19.53c0,1.12,0.08,2.1,0.24,2.91c0.16,0.82,0.4,1.52,0.72,2.12
		c0.55,1.01,1.33,1.76,2.34,2.25c1.01,0.49,2.21,0.74,3.62,0.74c1.47,0,2.73-0.28,3.77-0.83c1.04-0.55,1.83-1.39,2.36-2.51
		c0.53-1.08,0.79-2.58,0.79-4.51v-19.7h8.16V47.7c0,2.71-0.47,4.99-1.41,6.85c-0.53,1.06-1.21,2.01-2.05,2.88
		c-0.84,0.86-1.83,1.6-2.96,2.2c-1.14,0.61-2.42,1.08-3.86,1.41C292.42,61.37,290.82,61.54,289.05,61.54z"/>
	<path class="st0" d="M336.78,59.96c-1.03,0.44-2.3,0.81-3.79,1.12c-1.49,0.31-3.07,0.46-4.72,0.46c-2.41,0-4.66-0.34-6.75-1.03
		c-2.09-0.69-3.91-1.73-5.48-3.13s-2.79-3.17-3.68-5.32s-1.34-4.65-1.34-7.52c0-3.21,0.52-5.97,1.55-8.27
		c1.03-2.3,2.37-4.16,4.01-5.6c1.64-1.43,3.49-2.49,5.54-3.17c2.05-0.68,4.08-1.02,6.08-1.02c1.49,0,2.93,0.13,4.3,0.4
		c1.38,0.26,2.63,0.63,3.75,1.08v6.65c-1.01-0.44-2.08-0.79-3.22-1.05c-1.14-0.26-2.36-0.4-3.67-0.4s-2.56,0.2-3.75,0.6
		c-1.19,0.4-2.25,1.04-3.17,1.91c-0.92,0.87-1.65,2.03-2.19,3.46c-0.54,1.44-0.81,3.16-0.81,5.18c0,1.47,0.21,2.85,0.62,4.15
		c0.41,1.3,1.02,2.41,1.81,3.32c0.79,0.92,1.8,1.66,3.03,2.22c1.23,0.56,2.68,0.84,4.36,0.84c1.49,0,2.85-0.15,4.06-0.45
		c1.22-0.3,2.36-0.67,3.44-1.1V59.96z"/>
	<path class="st0" d="M364.22,60.65c-0.92,0.28-2.01,0.49-3.29,0.65c-1.27,0.16-2.46,0.24-3.56,0.24c-2.8,0-5.09-0.45-6.87-1.36
		c-1.78-0.91-3.04-2.21-3.77-3.91c-0.53-1.22-0.79-2.87-0.79-4.96V34.03h-6.23v-6.71h6.23v-9.33h8.16v9.33h9.64v6.71h-9.64v16.22
		c0,1.29,0.19,2.24,0.58,2.86c0.69,1.06,2.05,1.58,4.1,1.58c0.94,0,1.88-0.07,2.81-0.22s1.81-0.34,2.63-0.57V60.65z"/>
	<path class="st0" d="M402.41,44.01c0,2.62-0.39,5-1.17,7.16c-0.78,2.16-1.9,4.01-3.36,5.54s-3.22,2.73-5.29,3.56
		c-2.07,0.84-4.37,1.26-6.92,1.26c-2.62,0-4.96-0.42-7.04-1.26c-2.08-0.84-3.84-2.03-5.29-3.56s-2.55-3.39-3.32-5.54
		c-0.77-2.16-1.15-4.54-1.15-7.16s0.39-5,1.17-7.16c0.78-2.16,1.9-4.01,3.36-5.54s3.22-2.73,5.29-3.56
		c2.07-0.84,4.37-1.26,6.92-1.26c2.62,0,4.96,0.42,7.04,1.26c2.08,0.84,3.84,2.03,5.29,3.56s2.55,3.39,3.32,5.54
		C402.03,39.01,402.41,41.4,402.41,44.01z M393.98,44.01c0-1.77-0.21-3.33-0.62-4.68s-0.99-2.49-1.72-3.41
		c-0.74-0.92-1.62-1.61-2.65-2.07c-1.03-0.46-2.16-0.69-3.38-0.69c-1.19,0-2.3,0.23-3.32,0.69c-1.02,0.46-1.9,1.15-2.63,2.07
		c-0.73,0.92-1.31,2.06-1.72,3.41s-0.62,2.92-0.62,4.68s0.21,3.33,0.62,4.68s0.99,2.49,1.74,3.39c0.75,0.91,1.63,1.6,2.65,2.07
		s2.14,0.71,3.36,0.71s2.33-0.24,3.34-0.71c1.01-0.47,1.88-1.16,2.62-2.07c0.73-0.91,1.31-2.04,1.72-3.39S393.98,45.78,393.98,44.01
		z"/>
	<path class="st0" d="M429.48,33.78h-0.69c-2.5,0-4.7,0.37-6.59,1.12c-1.89,0.75-3.36,1.89-4.39,3.43v22.35h-8.16V27.31h6.75
		l0.76,4.65h0.14c0.96-1.7,2.29-3.04,3.98-4.01c1.69-0.98,3.71-1.46,6.08-1.46c0.83,0,1.54,0.05,2.14,0.14V33.78z"/>
</g>
<g>
	<rect x="4.31" y="43.02" class="st0" width="62.39" height="23.58"/>
	<rect x="20.13" y="30.48" class="st0" width="46.57" height="11.04"/>
	<rect x="35.51" y="17.94" class="st0" width="31.19" height="11.04"/>
	<rect x="51.1" y="5.4" class="st0" width="15.6" height="11.04"/>
</g>
</svg>
